<?xml version="1.0" encoding="utf-8"?><svg viewBox="0 0 502.66 502.66" xmlns="http://www.w3.org/2000/svg" xmlns:xlink="http://www.w3.org/1999/xlink"><style>:root>svg{display:none}:root>svg:target{display:block}</style><svg viewBox="0 0 16 29" id="arrowB" xmlns="http://www.w3.org/2000/svg"><path d="M8 0v28m0 0l-7-7.19M8 28l7-7.19"/></svg><svg viewBox="0 0 24 24" id="cart" xmlns="http://www.w3.org/2000/svg"><path d="M23.845 8.224a.533.533 0 00-.444-.148h-6.367V5.263a5.034 5.034 0 10-10.068 0v2.813H.599c-.178 0-.355 0-.444.148a.504.504 0 00-.148.445l2.22 12.141a3.613 3.613 0 003.495 2.961h12.556a3.642 3.642 0 003.494-2.99l2.221-12.112a.503.503 0 00-.148-.445zM8.15 5.263a3.85 3.85 0 017.7 0v2.813h-7.7V5.263zm12.438 15.37a2.37 2.37 0 01-2.31 1.954H5.722a2.37 2.37 0 01-2.31-1.955L1.31 9.261h21.38l-2.102 11.371z"/><path d="M16.442 15.035a.592.592 0 00.592-.592v-1.777a.592.592 0 10-1.184 0v1.777c0 .327.265.592.592.592zm-8.884 0a.592.592 0 00.592-.592v-1.777a.592.592 0 10-1.184 0v1.777c0 .327.265.592.592.592z"/></svg><svg viewBox="0 0 14 14" id="cross" xmlns="http://www.w3.org/2000/svg"><path d="M1 1l12 12m0-12L1 13"/></svg><svg viewBox="0 0 502.664 502.664" id="icon" xmlns="http://www.w3.org/2000/svg"><path d="M153.821 358.226L0 274.337v-46.463l153.821-83.414v54.574L46.636 250.523l107.185 53.431v54.272zm26.273 29.358L282.103 115.08h32.227L212.084 387.584h-31.99zm168.749-29.358v-54.272l107.164-52.999-107.164-52.59v-53.927l153.821 83.522v46.183l-153.821 84.083z"/></svg></svg>